<svg width="122" height="50" viewBox="0 0 122 50" fill="none" xmlns="http://www.w3.org/2000/svg">
<g id="Group 3">
<g id="Group">
<g id="Layer_1">
<g id="Group_2">
<path id="Vector" d="M35.7203 15.9162C35.2946 15.004 34.8098 14.1496 34.2778 13.3761L33.8344 12.7295L32.1435 13.5954C31.4577 13.9476 30.772 14.294 30.0921 14.6461L29.1935 15.1022L29.7787 15.9104C30.2221 16.5281 30.6182 17.2036 30.9552 17.9252C31.6528 19.4146 32.0016 21.008 32.0016 22.6764C32.0016 24.3448 31.6469 25.9843 30.9552 27.4737C30.2517 28.9747 29.2821 30.3025 28.0643 31.4225C26.8523 32.5424 25.4098 33.4546 23.7781 34.1185C22.1641 34.7766 20.4141 35.1056 18.5873 35.1056C16.7605 35.1056 15.0165 34.7708 13.4202 34.1185C11.8003 33.4488 10.3637 32.5367 9.15177 31.4167C7.93981 30.291 6.97025 28.9632 6.26081 27.4622C5.5691 25.9843 5.22029 24.3679 5.22029 22.6648C5.22029 20.9618 5.5691 19.3973 6.26081 17.9194C6.96433 16.4242 7.9339 15.0964 9.15177 13.9649C10.3756 12.8334 11.8122 11.927 13.4202 11.2631C14.6026 10.784 15.8501 10.4722 17.133 10.3452L17.9607 10.2644L17.9311 9.45041C17.8897 8.39395 17.8542 7.34326 17.8188 6.2868L17.7892 5.37466L16.861 5.44971C14.9633 5.60558 13.1246 6.03856 11.3865 6.73132C9.15769 7.62614 7.17717 8.86733 5.49225 10.4203C3.81324 11.979 2.4653 13.8206 1.48982 15.9046C0.50252 18.0175 0 20.2921 0 22.6648C0 25.0375 0.50252 27.3179 1.48982 29.425C2.4653 31.5091 3.80733 33.3564 5.49225 34.9267C7.17717 36.4912 9.1636 37.7381 11.3865 38.6329C13.6212 39.5278 16.0452 39.9838 18.5991 39.9838C21.1531 39.9838 23.5771 39.5278 25.8295 38.6329C28.082 37.7381 30.0743 36.4854 31.7474 34.9267C33.4324 33.3564 34.7685 31.5033 35.7321 29.4192C36.7017 27.3179 37.1924 25.0433 37.1924 22.659C37.1924 20.2748 36.7017 18.0002 35.7321 15.8989L35.7203 15.9162Z" fill="#1F1F1F"/>
<path id="Vector_2" d="M37.8191 7.98984C37.0978 6.92761 36.2406 5.93465 35.271 5.03983C33.5979 3.4869 31.6056 2.2457 29.3531 1.35088C27.0888 0.456068 24.659 0 22.1286 0C21.5374 0 20.9521 0.023092 20.3905 0.0750491L19.551 0.144325L19.5806 1.10264C19.616 2.11292 19.6456 3.12897 19.687 4.13924L19.7224 5.07447L20.6743 4.96478C21.1177 4.91283 21.5906 4.88974 22.1227 4.88974C23.9436 4.88974 25.6877 5.22457 27.3134 5.88269C28.9333 6.54081 30.3759 7.45295 31.5996 8.57869C32.2441 9.17331 32.8175 9.82565 33.3082 10.5126L33.7516 11.1361L34.4433 10.784C35.1055 10.4491 35.7735 10.1085 36.4357 9.76793L38.3571 8.78651L37.8132 7.98407L37.8191 7.98984Z" fill="#1F1F1F"/>
<g id="Group_3">
<path id="Vector_3" d="M46.5925 13.1567H43.4709V37.5419H46.5925V13.1567Z" fill="#1F1F1F"/>
<path id="Vector_4" d="M68.1831 26.3653H76.3712V23.4384H65.0615V37.5419H78.2689V34.6207H68.1831V26.3653Z" fill="#1F1F1F"/>
<path id="Vector_5" d="M78.2689 13.1567H65.0615V16.0836H78.2689V13.1567Z" fill="#1F1F1F"/>
<path id="Vector_6" d="M94.0126 32.173C93.9771 32.1383 93.9357 32.1037 93.8884 32.0575C92.5582 30.7932 91.4882 29.2922 90.7078 27.6008C89.9392 25.9208 89.5431 24.1254 89.5431 22.2492C89.5431 20.3729 89.9333 18.5891 90.7019 16.9265C91.4763 15.2581 92.5464 13.7629 93.8825 12.4813C95.2068 11.217 96.7912 10.2009 98.5766 9.46774C100.362 8.74034 102.313 8.37087 104.364 8.37087C105.996 8.37087 107.581 8.63066 109.07 9.13868L109.804 9.39269L112.754 4.84934L111.63 4.43368C109.313 3.57928 106.871 3.1463 104.364 3.1463C101.562 3.1463 98.8722 3.64855 96.3715 4.64151C93.8825 5.63447 91.6892 7.00267 89.8328 8.71725C87.9764 10.4376 86.4925 12.4755 85.4284 14.7789C84.3583 17.0997 83.8144 19.6109 83.8144 22.2492C83.8144 24.8874 84.3583 27.3929 85.4284 29.7137C86.4925 32.0171 87.9705 34.0607 89.8328 35.7984C90.1402 36.0813 90.4595 36.3584 90.7787 36.6182L91.636 37.311L94.6393 32.7041L94.0067 32.1614L94.0126 32.173Z" fill="#1F1F1F"/>
<path id="Vector_7" d="M58.7535 34.9729H49.04V37.1897H58.7535V34.9729Z" fill="#1F1F1F"/>
<path id="Vector_8" d="M108.101 17.5326L104.601 22.8958L116.07 22.9073C115.857 24.4949 115.183 26.0189 114.592 27.0927C113.753 28.6283 112.647 29.9792 111.305 31.0992C109.957 32.2249 108.385 33.1197 106.641 33.7605C104.908 34.3898 103.022 34.6842 101.054 34.6438L100.492 34.6323C99.5817 34.6092 98.689 34.5168 97.8376 34.3552L97.1814 34.2282L94.1486 38.8639L95.4551 39.1929C97.0218 39.5855 98.6772 39.8049 100.368 39.8453L100.93 39.8568C101.107 39.8568 101.278 39.8626 101.456 39.8626C104.045 39.8626 106.54 39.4296 108.881 38.5695C111.376 37.6458 113.599 36.3411 115.485 34.6958C117.383 33.0331 118.92 31.0415 120.049 28.7784C121.19 26.5097 121.817 24.0388 121.917 21.4121L122 17.8386L108.095 17.5269L108.101 17.5326Z" fill="#1F1F1F"/>
</g>
<g id="Group_4">
<path id="Vector_9" d="M7.06486 49.9193H6.65102L3.83099 43.2399H4.74735L6.86976 48.2624L8.26499 44.9834L7.53782 43.2399H8.45418L8.72613 43.8981C8.77934 43.7826 8.82663 43.6671 8.87984 43.5574C8.93305 43.4478 8.97443 43.3381 9.0099 43.2399H9.92626L9.18726 44.9891C9.31733 45.2951 9.43557 45.578 9.5479 45.8436C9.65431 46.1091 9.76664 46.3631 9.87306 46.6171C9.97947 46.8711 10.0918 47.1309 10.2041 47.3965C10.3165 47.662 10.4406 47.9507 10.5707 48.2624C10.9195 47.4369 11.2742 46.5998 11.6407 45.7454C12.0073 44.891 12.362 44.0597 12.7108 43.2457H13.6272L10.7776 49.9251H10.3638L8.74386 46.0514L7.07668 49.9251L7.06486 49.9193Z" fill="#1F1F1F"/>
<path id="Vector_10" d="M15.3416 49.9192V44.481H19.2495V45.1218H16.2166V46.6979H18.6405V47.3387H16.2166V49.2784H19.2495V49.9192H15.3416Z" fill="#1F1F1F"/>
<path id="Vector_11" d="M21.8626 44.481H24.4166C24.7003 44.481 24.9546 44.5157 25.191 44.5907C25.4275 44.6658 25.6226 44.7581 25.7941 44.8851C25.9655 45.0121 26.0956 45.1565 26.1902 45.3297C26.2848 45.5028 26.3321 45.6876 26.3321 45.8839C26.3321 46.3168 26.137 46.6517 25.7527 46.8826C26.1251 46.998 26.403 47.177 26.604 47.4137C26.7991 47.6562 26.8996 47.9564 26.8996 48.3258C26.8996 48.6145 26.8227 48.857 26.6749 49.059C26.5271 49.2611 26.3261 49.4227 26.0719 49.5497C25.8177 49.6825 25.5221 49.7749 25.1792 49.8326C24.8363 49.8903 24.4757 49.9192 24.0914 49.9192H21.8626V44.481ZM22.7316 45.1218V46.6979H24.4047C24.5644 46.6979 24.7122 46.669 24.8481 46.6228C24.9841 46.5766 25.0964 46.5131 25.191 46.4381C25.2856 46.363 25.3625 46.2764 25.4157 46.1783C25.4689 46.0801 25.4985 45.9878 25.4985 45.8896C25.4985 45.6876 25.4039 45.5086 25.2206 45.3585C25.0373 45.2084 24.7713 45.1276 24.4225 45.1276H22.7376L22.7316 45.1218ZM22.7316 47.3387V49.2957H24.1328C24.7358 49.2957 25.2029 49.2091 25.528 49.0301C25.8532 48.8512 26.0246 48.6203 26.0246 48.3374C26.0246 47.6735 25.4748 47.3387 24.3811 47.3387H22.7257H22.7316Z" fill="#1F1F1F"/>
<path id="Vector_12" d="M34.7862 43.2398H36.1223C36.749 43.2398 37.3343 43.3264 37.8841 43.4938C38.4339 43.6612 38.9187 43.8922 39.3266 44.1866C39.7345 44.481 40.0597 44.8332 40.2962 45.2315C40.5327 45.6356 40.6509 46.0744 40.6509 46.5477C40.6509 47.0211 40.5327 47.4599 40.2962 47.8698C40.0597 48.2796 39.7404 48.6376 39.3266 48.9378C38.9187 49.238 38.4398 49.4804 37.89 49.6536C37.3402 49.8268 36.7549 49.9134 36.1341 49.9134H34.7862V43.234V43.2398ZM35.6553 43.8979V49.2553H36.1223C36.6307 49.2553 37.1037 49.186 37.5471 49.0475C37.9905 48.9089 38.3748 48.7184 38.7059 48.4759C39.0369 48.2335 39.297 47.9448 39.4921 47.6158C39.6813 47.2809 39.7818 46.9288 39.7818 46.5477C39.7818 46.1667 39.6872 45.8146 39.4921 45.4913C39.297 45.168 39.0369 44.8909 38.7059 44.6484C38.3748 44.4117 37.9905 44.227 37.5471 44.0942C37.1037 43.9614 36.6307 43.8979 36.1223 43.8979H35.6553Z" fill="#1F1F1F"/>
<path id="Vector_13" d="M42.933 49.9192V44.481H46.8408V45.1218H43.8079V46.6979H46.2318V47.3387H43.8079V49.2784H46.8408V49.9192H42.933Z" fill="#1F1F1F"/>
<path id="Vector_14" d="M51.257 49.9192L48.8213 44.481H49.7377L51.4758 48.3432C51.665 47.916 51.8541 47.4945 52.0374 47.0789C52.2207 46.6632 52.4158 46.2418 52.6109 45.8146L52.0138 44.481H52.9183L53.072 44.7985L53.2139 44.481H54.1184L53.5213 45.8204C53.6277 46.0686 53.7283 46.2937 53.8228 46.49C53.9115 46.6921 54.0002 46.8826 54.0889 47.0731C54.1776 47.2636 54.2662 47.4599 54.3549 47.6562C54.4436 47.8582 54.5441 48.0776 54.6564 48.3258C54.9461 47.6793 55.2358 47.0385 55.5314 46.3977C55.827 45.7569 56.1167 45.1161 56.4064 44.4753H57.3109L54.8634 49.9134H54.4495L53.0661 46.8306L51.6827 49.9134H51.2689L51.257 49.9192Z" fill="#1F1F1F"/>
<path id="Vector_15" d="M59.2737 49.9192V44.481H63.1815V45.1218H60.1487V46.6979H62.5726V47.3387H60.1487V49.2784H63.1815V49.9192H59.2737Z" fill="#1F1F1F"/>
<path id="Vector_16" d="M69.6906 49.2784V49.9192H65.7946V44.481H66.6637V49.2784H69.6906Z" fill="#1F1F1F"/>
<path id="Vector_17" d="M74.6035 44.4002C75.0942 44.4002 75.5731 44.4637 76.0283 44.5965C76.4835 44.7235 76.8914 44.914 77.2402 45.1565C77.5891 45.3989 77.8728 45.6934 78.0857 46.0397C78.2985 46.3861 78.399 46.7729 78.399 47.2001C78.399 47.6273 78.2926 48.0199 78.0857 48.3663C77.8787 48.7126 77.595 49.0013 77.2402 49.2438C76.8855 49.4862 76.4835 49.671 76.0283 49.8037C75.5731 49.9365 75.0942 50 74.6035 50C74.1128 50 73.6339 49.9365 73.1728 49.8037C72.7117 49.671 72.3037 49.4862 71.9549 49.2438C71.6002 49.0013 71.3223 48.7069 71.1095 48.3663C70.8967 48.0257 70.7962 47.6331 70.7962 47.2001C70.7962 46.7671 70.9026 46.3861 71.1095 46.0397C71.3223 45.6934 71.6002 45.3989 71.9549 45.1565C72.3037 44.914 72.7117 44.7293 73.1728 44.5965C73.6339 44.4637 74.1128 44.4002 74.6035 44.4002ZM74.6035 45.041C74.2192 45.041 73.8468 45.093 73.492 45.1911C73.1373 45.295 72.824 45.4336 72.552 45.6183C72.2801 45.803 72.0613 46.0282 71.9076 46.2938C71.748 46.5593 71.6711 46.8595 71.6711 47.1943C71.6711 47.5292 71.748 47.8294 71.9076 48.0949C72.0673 48.3605 72.2801 48.5856 72.552 48.7761C72.824 48.9667 73.1373 49.1052 73.492 49.2033C73.8468 49.3015 74.2192 49.3477 74.6035 49.3477C74.9878 49.3477 75.3543 49.3015 75.709 49.2033C76.0638 49.1052 76.3712 48.9609 76.6431 48.7761C76.9151 48.5914 77.1279 48.3605 77.2875 48.0949C77.4472 47.8294 77.524 47.5292 77.524 47.1943C77.524 46.8595 77.4413 46.5593 77.2875 46.2938C77.1279 46.0282 76.9151 45.803 76.6431 45.6183C76.3712 45.4336 76.0579 45.2892 75.709 45.1911C75.3543 45.093 74.9878 45.041 74.6035 45.041Z" fill="#1F1F1F"/>
<path id="Vector_18" d="M85.517 46.3746C85.517 46.6574 85.452 46.9172 85.316 47.1424C85.1801 47.3733 85.0027 47.5754 84.7721 47.737C84.5416 47.9044 84.2755 48.0372 83.9622 48.1296C83.6489 48.2219 83.3178 48.2681 82.9631 48.2681H81.4496V49.9134H80.5805V44.4753H82.496C82.9394 44.4753 83.3473 44.5214 83.7139 44.608C84.0863 44.7004 84.4056 44.8274 84.6716 44.989C84.9377 45.1507 85.1505 45.3527 85.2983 45.5837C85.4461 45.8204 85.523 46.0801 85.523 46.3688L85.517 46.3746ZM84.648 46.3746C84.648 46.1783 84.5889 46.0051 84.4765 45.8492C84.3642 45.6991 84.2164 45.5664 84.0272 45.4567C83.838 45.347 83.6193 45.2662 83.371 45.2027C83.1227 45.1449 82.8567 45.1161 82.5847 45.1161H81.4555V47.6273H82.969C83.2291 47.6273 83.4656 47.5927 83.6725 47.5292C83.8794 47.4599 84.0568 47.3733 84.1987 47.2578C84.3465 47.1482 84.4588 47.0154 84.5357 46.8595C84.6184 46.7094 84.6539 46.542 84.6539 46.3688L84.648 46.3746Z" fill="#1F1F1F"/>
<path id="Vector_19" d="M87.6927 49.9192V44.481H88.5322L91.5473 49.0186L94.5388 44.481H95.3428V49.9192H94.4738L94.4974 46.0455L91.9198 49.9192H91.1689L88.5677 46.0109V49.9192H87.6986H87.6927Z" fill="#1F1F1F"/>
<path id="Vector_20" d="M97.9559 49.9192V44.481H101.864V45.1218H98.8309V46.6979H101.255V47.3387H98.8309V49.2784H101.864V49.9192H97.9559Z" fill="#1F1F1F"/>
<path id="Vector_21" d="M104.359 49.9192V44.481H105.109L108.828 47.0327V44.481H109.697V49.9192H108.828V47.9217L105.228 45.4509V49.9192H104.359Z" fill="#1F1F1F"/>
<path id="Vector_22" d="M111.772 44.481H117.867V45.1218H115.254V49.9192H114.385V45.1218H111.772V44.481Z" fill="#1F1F1F"/>
</g>
</g>
</g>
</g>
</g>
</svg>
