<svg width="130" height="52" viewBox="0 0 130 52" fill="none" xmlns="http://www.w3.org/2000/svg">
<g id="Group 4">
<g id="Group">
<g id="Layer_1">
<g id="Group_2">
<path id="Vector" d="M38.0626 16.5528C37.609 15.6041 37.0925 14.7156 36.5255 13.911L36.053 13.2386L34.2513 14.1392C33.5205 14.5054 32.7898 14.8657 32.0653 15.2319L31.1078 15.7062L31.7314 16.5468C32.2039 17.1892 32.626 17.8916 32.9851 18.6421C33.7284 20.1911 34.1001 21.8482 34.1001 23.5834C34.1001 25.3185 33.7221 27.0236 32.9851 28.5726C32.2354 30.1336 31.2023 31.5146 29.9045 32.6793C28.6131 33.8441 27.076 34.7927 25.3373 35.4831C23.6175 36.1676 21.7528 36.5098 19.8062 36.5098C17.8596 36.5098 16.0012 36.1616 14.3003 35.4831C12.5741 34.7867 11.0433 33.8381 9.75189 32.6733C8.46046 31.5025 7.42731 30.1216 6.67135 28.5606C5.93429 27.0236 5.56261 25.3425 5.56261 23.5714C5.56261 21.8002 5.93429 20.1731 6.67135 18.6361C7.42101 17.0811 8.45416 15.7002 9.75189 14.5234C11.0559 13.3467 12.5867 12.4041 14.3003 11.7136C15.5602 11.2153 16.8894 10.8911 18.2564 10.759L19.1384 10.6749L19.1069 9.82837C19.0628 8.72965 19.025 7.63694 18.9872 6.53822L18.9557 5.5896L17.9667 5.66765C15.9445 5.82976 13.9853 6.28005 12.1332 7.00052C9.75819 7.93113 7.6478 9.22197 5.85239 10.837C4.06329 12.4581 2.62696 14.3733 1.58752 16.5408C0.535472 18.7382 0 21.1037 0 23.5714C0 26.039 0.535472 28.4105 1.58752 30.602C2.62696 32.7694 4.05699 34.6906 5.85239 36.3237C7.6478 37.9508 9.76449 39.2476 12.1332 40.1782C14.5144 41.1088 17.0973 41.5831 19.8188 41.5831C22.5402 41.5831 25.1231 41.1088 27.5233 40.1782C29.9234 39.2476 32.0464 37.9448 33.8292 36.3237C35.6246 34.6906 37.0484 32.7634 38.0752 30.596C39.1084 28.4105 39.6312 26.045 39.6312 23.5654C39.6312 21.0857 39.1084 18.7202 38.0752 16.5348L38.0626 16.5528Z" fill="#F2F2F2"/>
<path id="Vector_2" d="M40.299 8.30943C39.5304 7.20471 38.617 6.17203 37.5838 5.24143C35.801 3.62637 33.678 2.33553 31.2779 1.40492C28.8651 0.47431 26.2759 0 23.5797 0C22.9497 0 22.326 0.0240157 21.7276 0.078051L20.833 0.150098L20.8645 1.14675C20.9023 2.19744 20.9338 3.25413 20.9779 4.30481L21.0157 5.27745L22.0299 5.16338C22.5024 5.10934 23.0064 5.08532 23.5734 5.08532C25.5137 5.08532 27.3721 5.43355 29.1045 6.118C30.8306 6.80245 32.3677 7.75107 33.6717 8.92183C34.3584 9.54024 34.9695 10.2187 35.4923 10.9331L35.9648 11.5816L36.7019 11.2153C37.4074 10.8671 38.1193 10.5129 38.8249 10.1586L40.8723 9.13797L40.2927 8.30343L40.299 8.30943Z" fill="#F2F2F2"/>
<g id="Group_3">
<path id="Vector_3" d="M49.6477 13.6829H46.3215V39.0434H49.6477V13.6829Z" fill="#F2F2F2"/>
<path id="Vector_4" d="M72.6542 27.4197H81.3792V24.3757H69.3279V39.0433H83.4014V36.0053H72.6542V27.4197Z" fill="#F2F2F2"/>
<path id="Vector_5" d="M83.4014 13.6829H69.3279V16.7269H83.4014V13.6829Z" fill="#F2F2F2"/>
<path id="Vector_6" d="M100.177 33.46C100.14 33.4239 100.096 33.3879 100.045 33.3399C98.6277 32.025 97.4875 30.464 96.6559 28.7048C95.8369 26.9577 95.4149 25.0905 95.4149 23.1392C95.4149 21.1879 95.8306 19.3327 96.6496 17.6036C97.4749 15.8685 98.6151 14.3134 100.039 12.9806C101.45 11.6657 103.138 10.609 105.041 9.84652C106.943 9.09002 109.022 8.70577 111.208 8.70577C112.947 8.70577 114.635 8.97595 116.223 9.50429L117.004 9.76846L120.147 5.04337L118.95 4.61109C116.481 3.72251 113.879 3.27222 111.208 3.27222C108.222 3.27222 105.356 3.79456 102.691 4.82723C100.039 5.85991 97.7016 7.28284 95.7235 9.06601C93.7454 10.8552 92.1642 12.9746 91.0303 15.3701C89.8901 17.7837 89.3105 20.3954 89.3105 23.1392C89.3105 25.883 89.8901 28.4887 91.0303 30.9023C92.1642 33.2979 93.7391 35.4232 95.7235 37.2304C96.0511 37.5246 96.3913 37.8128 96.7315 38.083L97.6449 38.8035L100.845 34.0123L100.171 33.4479L100.177 33.46Z" fill="#F2F2F2"/>
<path id="Vector_7" d="M62.6062 36.3716H52.2558V38.6771H62.6062V36.3716Z" fill="#F2F2F2"/>
<path id="Vector_8" d="M115.189 18.2338L111.46 23.8114L123.681 23.8234C123.455 25.4745 122.736 27.0596 122.107 28.1763C121.212 29.7733 120.034 31.1782 118.604 32.343C117.168 33.5138 115.492 34.4444 113.633 35.1108C111.788 35.7652 109.778 36.0714 107.68 36.0294L107.082 36.0174C106.112 35.9934 105.16 35.8973 104.253 35.7292L103.554 35.5971L100.322 40.4183L101.714 40.7605C103.384 41.1688 105.148 41.3969 106.95 41.439L107.548 41.451C107.737 41.451 107.92 41.457 108.109 41.457C110.868 41.457 113.526 41.0067 116.021 40.1121C118.68 39.1515 121.048 37.7946 123.058 36.0835C125.08 34.3543 126.718 32.283 127.921 29.9294C129.137 27.5699 129.805 25.0002 129.912 22.2684L130 18.552L115.183 18.2278L115.189 18.2338Z" fill="#F2F2F2"/>
</g>
<g id="Group_4">
<path id="Vector_9" d="M7.5281 51.916H7.08713L4.08218 44.9695H5.05863L7.32021 50.1929L8.80694 46.7827L8.03208 44.9695H9.00853L9.29831 45.6539C9.35501 45.5339 9.4054 45.4138 9.4621 45.2997C9.5188 45.1856 9.5629 45.0715 9.6007 44.9695H10.5771L9.78968 46.7887C9.92828 47.1069 10.0543 47.4011 10.174 47.6773C10.2874 47.9534 10.4071 48.2176 10.5204 48.4818C10.6338 48.746 10.7535 49.0161 10.8732 49.2923C10.9929 49.5685 11.1252 49.8687 11.2638 50.1929C11.6355 49.3343 12.0135 48.4638 12.404 47.5752C12.7946 46.6866 13.1726 45.822 13.5443 44.9755H14.5207L11.4843 51.922H11.0433L9.31721 47.8934L7.5407 51.922L7.5281 51.916Z" fill="#F2F2F2"/>
<path id="Vector_10" d="M16.3477 51.9157V46.26H20.5117V46.9264H17.28V48.5655H19.8629V49.232H17.28V51.2493H20.5117V51.9157H16.3477Z" fill="#F2F2F2"/>
<path id="Vector_11" d="M23.2962 46.26H26.0177C26.32 46.26 26.5909 46.296 26.8429 46.3741C27.0949 46.4521 27.3028 46.5482 27.4855 46.6803C27.6682 46.8124 27.8068 46.9625 27.9076 47.1426C28.0084 47.3227 28.0588 47.5148 28.0588 47.719C28.0588 48.1693 27.8509 48.5175 27.4414 48.7576C27.8383 48.8777 28.1344 49.0638 28.3485 49.31C28.5564 49.5622 28.6635 49.8744 28.6635 50.2586C28.6635 50.5588 28.5816 50.811 28.4241 51.0211C28.2666 51.2313 28.0525 51.3994 27.7816 51.5315C27.5107 51.6695 27.1957 51.7656 26.8303 51.8256C26.4649 51.8857 26.0807 51.9157 25.6712 51.9157H23.2962V46.26ZM24.2223 46.9264V48.5655H26.0051C26.1752 48.5655 26.3326 48.5355 26.4775 48.4875C26.6224 48.4394 26.7421 48.3734 26.8429 48.2953C26.9437 48.2173 27.0256 48.1272 27.0823 48.0252C27.139 47.9231 27.1705 47.827 27.1705 47.725C27.1705 47.5148 27.0697 47.3287 26.8744 47.1726C26.6791 47.0165 26.3956 46.9324 26.024 46.9324H24.2286L24.2223 46.9264ZM24.2223 49.232V51.2673H25.7153C26.3578 51.2673 26.8555 51.1772 27.202 50.9911C27.5485 50.805 27.7312 50.5648 27.7312 50.2706C27.7312 49.5802 27.1453 49.232 25.9799 49.232H24.216H24.2223Z" fill="#F2F2F2"/>
<path id="Vector_12" d="M37.0673 44.9694H38.491C39.1588 44.9694 39.7824 45.0594 40.3683 45.2336C40.9542 45.4077 41.4707 45.6478 41.9054 45.954C42.3401 46.2602 42.6866 46.6265 42.9386 47.0407C43.1905 47.461 43.3165 47.9173 43.3165 48.4096C43.3165 48.902 43.1905 49.3583 42.9386 49.7845C42.6866 50.2108 42.3464 50.5831 41.9054 50.8953C41.4707 51.2075 40.9605 51.4596 40.3746 51.6397C39.7887 51.8199 39.1651 51.9099 38.5036 51.9099H37.0673V44.9634V44.9694ZM37.9933 45.6538V51.2255H38.491C39.0328 51.2255 39.5367 51.1534 40.0092 51.0093C40.4817 50.8652 40.8912 50.6671 41.2439 50.4149C41.5967 50.1628 41.8739 49.8626 42.0818 49.5204C42.2834 49.1721 42.3905 48.8059 42.3905 48.4096C42.3905 48.0134 42.2897 47.6471 42.0818 47.3109C41.8739 46.9747 41.5967 46.6865 41.2439 46.4343C40.8912 46.1882 40.4817 45.9961 40.0092 45.858C39.5367 45.7199 39.0328 45.6538 38.491 45.6538H37.9933Z" fill="#F2F2F2"/>
<path id="Vector_13" d="M45.7482 51.9157V46.26H49.9123V46.9264H46.6806V48.5655H49.2634V49.232H46.6806V51.2493H49.9123V51.9157H45.7482Z" fill="#F2F2F2"/>
<path id="Vector_14" d="M54.6181 51.9159L52.0227 46.2602H52.9991L54.8512 50.2768C55.0528 49.8325 55.2544 49.3942 55.4497 48.9619C55.645 48.5296 55.8529 48.0914 56.0608 47.6471L55.4245 46.2602H56.3883L56.5521 46.5904L56.7033 46.2602H57.6672L57.0309 47.6531C57.1443 47.9112 57.2514 48.1454 57.3522 48.3495C57.4467 48.5597 57.5412 48.7578 57.6357 48.9559C57.7302 49.154 57.8247 49.3582 57.9192 49.5623C58.0137 49.7725 58.1208 50.0006 58.2405 50.2588C58.5491 49.5863 58.8578 48.9199 59.1728 48.2535C59.4878 47.587 59.7965 46.9206 60.1052 46.2542H61.069L58.4609 51.9098H58.02L56.5458 48.7038L55.0717 51.9098H54.6307L54.6181 51.9159Z" fill="#F2F2F2"/>
<path id="Vector_15" d="M63.1605 51.9157V46.26H67.3246V46.9264H64.0929V48.5655H66.6757V49.232H64.0929V51.2493H67.3246V51.9157H63.1605Z" fill="#F2F2F2"/>
<path id="Vector_16" d="M74.2605 51.2493V51.9157H70.109V46.26H71.0351V51.2493H74.2605Z" fill="#F2F2F2"/>
<path id="Vector_17" d="M79.4956 46.176C80.0185 46.176 80.5287 46.2421 81.0138 46.3802C81.4989 46.5122 81.9336 46.7104 82.3052 46.9625C82.6769 47.2147 82.9793 47.5209 83.2061 47.8811C83.4329 48.2414 83.54 48.6436 83.54 49.0879C83.54 49.5322 83.4266 49.9405 83.2061 50.3007C82.9856 50.661 82.6832 50.9612 82.3052 51.2133C81.9273 51.4655 81.4989 51.6576 81.0138 51.7957C80.5287 51.9338 80.0185 51.9998 79.4956 51.9998C78.9727 51.9998 78.4624 51.9338 77.9711 51.7957C77.4797 51.6576 77.045 51.4655 76.6733 51.2133C76.2954 50.9612 75.9993 50.655 75.7725 50.3007C75.5457 49.9465 75.4386 49.5382 75.4386 49.0879C75.4386 48.6376 75.552 48.2414 75.7725 47.8811C75.9993 47.5209 76.2954 47.2147 76.6733 46.9625C77.045 46.7104 77.4797 46.5182 77.9711 46.3802C78.4624 46.2421 78.9727 46.176 79.4956 46.176ZM79.4956 46.8425C79.0861 46.8425 78.6892 46.8965 78.3112 46.9986C77.9333 47.1066 77.5994 47.2507 77.3096 47.4429C77.0198 47.635 76.7867 47.8691 76.6229 48.1453C76.4528 48.4215 76.3709 48.7337 76.3709 49.0819C76.3709 49.4302 76.4528 49.7424 76.6229 50.0185C76.793 50.2947 77.0198 50.5289 77.3096 50.727C77.5994 50.9251 77.9333 51.0692 78.3112 51.1713C78.6892 51.2734 79.0861 51.3214 79.4956 51.3214C79.9051 51.3214 80.2956 51.2734 80.6736 51.1713C81.0516 51.0692 81.3792 50.9191 81.669 50.727C81.9588 50.5349 82.1855 50.2947 82.3556 50.0185C82.5257 49.7424 82.6076 49.4302 82.6076 49.0819C82.6076 48.7337 82.5194 48.4215 82.3556 48.1453C82.1855 47.8691 81.9588 47.635 81.669 47.4429C81.3792 47.2507 81.0453 47.1006 80.6736 46.9986C80.2956 46.8965 79.9051 46.8425 79.4956 46.8425Z" fill="#F2F2F2"/>
<path id="Vector_18" d="M91.1248 48.2294C91.1248 48.5236 91.0555 48.7938 90.9106 49.028C90.7657 49.2681 90.5767 49.4783 90.331 49.6464C90.0853 49.8205 89.8018 49.9586 89.4679 50.0546C89.1341 50.1507 88.7813 50.1987 88.4033 50.1987H86.7906V51.9098H85.8645V46.2542H87.9056C88.3781 46.2542 88.8128 46.3022 89.2034 46.3922C89.6002 46.4883 89.9404 46.6204 90.2239 46.7885C90.5074 46.9566 90.7342 47.1667 90.8917 47.4069C91.0492 47.6531 91.1311 47.9232 91.1311 48.2234L91.1248 48.2294ZM90.1987 48.2294C90.1987 48.0253 90.1357 47.8452 90.016 47.6831C89.8963 47.527 89.7388 47.3889 89.5372 47.2748C89.3357 47.1607 89.1026 47.0767 88.838 47.0106C88.5734 46.9506 88.2899 46.9206 88.0001 46.9206H86.7969V49.5323H88.4096C88.6868 49.5323 88.9388 49.4963 89.1593 49.4302C89.3797 49.3582 89.5687 49.2681 89.7199 49.148C89.8774 49.034 89.9971 48.8959 90.079 48.7338C90.1672 48.5777 90.205 48.4036 90.205 48.2234L90.1987 48.2294Z" fill="#F2F2F2"/>
<path id="Vector_19" d="M93.443 51.9157V46.26H94.3376L97.5504 50.9791L100.738 46.26H101.595V51.9157H100.669L100.694 47.8871L97.9473 51.9157H97.1472L94.3754 47.8511V51.9157H93.4493H93.443Z" fill="#F2F2F2"/>
<path id="Vector_20" d="M104.379 51.9157V46.26H108.543V46.9264H105.312V48.5655H107.894V49.232H105.312V51.2493H108.543V51.9157H104.379Z" fill="#F2F2F2"/>
<path id="Vector_21" d="M111.202 51.9157V46.26H112.002L115.964 48.9137V46.26H116.89V51.9157H115.964V49.8383L112.128 47.2687V51.9157H111.202Z" fill="#F2F2F2"/>
<path id="Vector_22" d="M119.102 46.26H125.597V46.9264H122.812V51.9157H121.886V46.9264H119.102V46.26Z" fill="#F2F2F2"/>
</g>
</g>
</g>
</g>
</g>
</svg>
